<svg width="214" height="72" viewBox="0 0 214 72" fill="none" xmlns="http://www.w3.org/2000/svg">
<g opacity="0.3">
<path d="M0.864 18.4H21.84V22.384L9.6 52H4.944L17.088 22.624H0.864V18.4ZM42.1778 34.624C43.8098 35.456 45.0898 36.576 46.0178 37.984C46.9458 39.392 47.4098 40.992 47.4098 42.784C47.4098 45.856 46.3378 48.272 44.1938 50.032C42.0498 51.76 39.2818 52.624 35.8898 52.624C32.5298 52.624 29.7778 51.76 27.6338 50.032C25.4898 48.272 24.4178 45.856 24.4178 42.784C24.4178 40.992 24.8818 39.392 25.8098 37.984C26.7378 36.576 28.0178 35.456 29.6497 34.624C26.8978 32.896 25.5218 30.448 25.5218 27.28C25.5218 24.24 26.5298 21.904 28.5458 20.272C30.5938 18.608 33.0418 17.776 35.8898 17.776C38.7698 17.776 41.2178 18.608 43.2338 20.272C45.2818 21.904 46.3058 24.24 46.3058 27.28C46.3058 30.448 44.9298 32.896 42.1778 34.624ZM35.8898 22.048C34.1938 22.048 32.7698 22.496 31.6178 23.392C30.4978 24.288 29.9378 25.616 29.9378 27.376C29.9378 29.072 30.5138 30.4 31.6658 31.36C32.8178 32.288 34.2258 32.752 35.8898 32.752C37.5538 32.752 38.9618 32.288 40.1138 31.36C41.2658 30.4 41.8418 29.072 41.8418 27.376C41.8418 25.616 41.2818 24.288 40.1618 23.392C39.0418 22.496 37.6178 22.048 35.8898 22.048ZM35.8898 48.352C38.0338 48.352 39.7458 47.856 41.0258 46.864C42.3378 45.84 42.9938 44.384 42.9938 42.496C42.9938 40.64 42.3378 39.216 41.0258 38.224C39.7458 37.2 38.0338 36.688 35.8898 36.688C33.7778 36.688 32.0658 37.2 30.7538 38.224C29.4738 39.216 28.8338 40.64 28.8338 42.496C28.8338 44.384 29.4738 45.84 30.7538 46.864C32.0658 47.856 33.7778 48.352 35.8898 48.352Z" fill="black"/>
<path d="M75.656 30.182C74.172 30.182 72.9447 29.692 71.974 28.712C71.0127 27.732 70.532 26.528 70.532 25.1C70.532 23.672 71.0127 22.468 71.974 21.488C72.9447 20.508 74.172 20.018 75.656 20.018C76.552 20.018 77.3733 20.2327 78.12 20.662C78.876 21.0913 79.464 21.67 79.884 22.398L78.75 23.056C78.47 22.5147 78.05 22.0853 77.49 21.768C76.9393 21.4413 76.328 21.278 75.656 21.278C74.5267 21.278 73.6027 21.642 72.884 22.37C72.1747 23.098 71.82 24.008 71.82 25.1C71.82 26.1827 72.1747 27.088 72.884 27.816C73.6027 28.544 74.5267 28.908 75.656 28.908C76.328 28.908 76.9393 28.7493 77.49 28.432C78.05 28.1053 78.47 27.676 78.75 27.144L79.884 27.788C79.4733 28.516 78.89 29.0993 78.134 29.538C77.378 29.9673 76.552 30.182 75.656 30.182ZM87.1133 29.118C86.3946 29.8273 85.5219 30.182 84.4953 30.182C83.4686 30.182 82.5959 29.8273 81.8773 29.118C81.1679 28.4087 80.8133 27.536 80.8133 26.5C80.8133 25.464 81.1679 24.5913 81.8773 23.882C82.5959 23.1727 83.4686 22.818 84.4953 22.818C85.5219 22.818 86.3946 23.1727 87.1133 23.882C87.8319 24.5913 88.1912 25.464 88.1912 26.5C88.1912 27.536 87.8319 28.4087 87.1133 29.118ZM84.4953 28.992C85.1953 28.992 85.7833 28.754 86.2593 28.278C86.7353 27.802 86.9733 27.2093 86.9733 26.5C86.9733 25.7907 86.7353 25.198 86.2593 24.722C85.7833 24.246 85.1953 24.008 84.4953 24.008C83.8046 24.008 83.2213 24.246 82.7453 24.722C82.2693 25.198 82.0312 25.7907 82.0312 26.5C82.0312 27.2093 82.2693 27.802 82.7453 28.278C83.2213 28.754 83.8046 28.992 84.4953 28.992ZM94.2891 26.402C95.0078 26.7007 95.3671 27.242 95.3671 28.026C95.3671 28.6047 95.1711 29.0807 94.7791 29.454C94.3965 29.818 93.8458 30 93.1271 30H89.6271V23H92.8471C93.5471 23 94.0885 23.1773 94.4711 23.532C94.8538 23.8773 95.0451 24.3347 95.0451 24.904C95.0451 25.576 94.7931 26.0753 94.2891 26.402ZM92.7911 24.092H90.8171V25.926H92.7911C93.5005 25.926 93.8551 25.6133 93.8551 24.988C93.8551 24.3907 93.5005 24.092 92.7911 24.092ZM93.0571 28.894C93.4118 28.894 93.6825 28.81 93.8691 28.642C94.0651 28.474 94.1631 28.236 94.1631 27.928C94.1631 27.6387 94.0651 27.4147 93.8691 27.256C93.6825 27.088 93.4118 27.004 93.0571 27.004H90.8171V28.894H93.0571ZM100.546 22.818C101.526 22.818 102.361 23.1773 103.052 23.896C103.742 24.6053 104.088 25.4733 104.088 26.5C104.088 27.5267 103.742 28.3993 103.052 29.118C102.361 29.8273 101.526 30.182 100.546 30.182C99.3885 30.182 98.5065 29.72 97.8998 28.796V32.8H96.6818V23H97.8998V24.204C98.5065 23.28 99.3885 22.818 100.546 22.818ZM100.392 29.006C101.092 29.006 101.68 28.768 102.156 28.292C102.632 27.8067 102.87 27.2093 102.87 26.5C102.87 25.7907 102.632 25.198 102.156 24.722C101.68 24.2367 101.092 23.994 100.392 23.994C99.6825 23.994 99.0898 24.2367 98.6138 24.722C98.1378 25.198 97.8998 25.7907 97.8998 26.5C97.8998 27.2093 98.1378 27.8067 98.6138 28.292C99.0898 28.768 99.6825 29.006 100.392 29.006ZM106.395 27.06C106.517 27.6853 106.801 28.1707 107.249 28.516C107.707 28.8613 108.267 29.034 108.929 29.034C109.853 29.034 110.525 28.6933 110.945 28.012L111.981 28.6C111.3 29.6547 110.273 30.182 108.901 30.182C107.791 30.182 106.885 29.8367 106.185 29.146C105.495 28.446 105.149 27.564 105.149 26.5C105.149 25.4453 105.49 24.568 106.171 23.868C106.853 23.168 107.735 22.818 108.817 22.818C109.844 22.818 110.679 23.182 111.323 23.91C111.977 24.6287 112.303 25.4967 112.303 26.514C112.303 26.6913 112.289 26.8733 112.261 27.06H106.395ZM108.817 23.966C108.164 23.966 107.623 24.1527 107.193 24.526C106.764 24.89 106.498 25.38 106.395 25.996H111.071C110.969 25.3333 110.707 24.8293 110.287 24.484C109.867 24.1387 109.377 23.966 108.817 23.966ZM120.703 23V30H119.513V24.918L117.287 28.502H117.133L114.907 24.918V30H113.703V23H115.005L117.203 26.542L119.401 23H120.703ZM123.417 27.06C123.538 27.6853 123.823 28.1707 124.271 28.516C124.728 28.8613 125.288 29.034 125.951 29.034C126.875 29.034 127.547 28.6933 127.967 28.012L129.003 28.6C128.321 29.6547 127.295 30.182 125.923 30.182C124.812 30.182 123.907 29.8367 123.207 29.146C122.516 28.446 122.171 27.564 122.171 26.5C122.171 25.4453 122.511 24.568 123.193 23.868C123.874 23.168 124.756 22.818 125.839 22.818C126.865 22.818 127.701 23.182 128.345 23.91C128.998 24.6287 129.325 25.4967 129.325 26.514C129.325 26.6913 129.311 26.8733 129.283 27.06H123.417ZM125.839 23.966C125.185 23.966 124.644 24.1527 124.215 24.526C123.785 24.89 123.519 25.38 123.417 25.996H128.093C127.99 25.3333 127.729 24.8293 127.309 24.484C126.889 24.1387 126.399 23.966 125.839 23.966ZM135.569 23H136.787V30H135.569V27.074H131.943V30H130.725V23H131.943V25.912H135.569V23ZM143.485 23H144.703V30H143.485V27.074H139.859V30H138.641V23H139.859V25.912H143.485V23ZM149.511 25.52C150.211 25.52 150.789 25.73 151.247 26.15C151.713 26.5607 151.947 27.0973 151.947 27.76C151.947 28.4227 151.713 28.964 151.247 29.384C150.789 29.7947 150.211 30 149.511 30H146.557V23H147.775V25.52H149.511ZM152.857 23H154.075V30H152.857V23ZM149.511 28.866C149.856 28.866 150.145 28.768 150.379 28.572C150.621 28.3667 150.743 28.096 150.743 27.76C150.743 27.424 150.621 27.1533 150.379 26.948C150.145 26.7427 149.856 26.64 149.511 26.64H147.775V28.866H149.511ZM162.012 30H160.584L158.624 27.354L156.65 30H155.222L157.91 26.402L155.376 23H156.818L158.624 25.436L160.43 23H161.858L159.338 26.388L162.012 30ZM172.521 28.838H173.669V31.876H172.465V30H166.641V23H167.859V28.838H171.303V23H172.521V28.838ZM175.548 27.06C175.669 27.6853 175.954 28.1707 176.402 28.516C176.859 28.8613 177.419 29.034 178.082 29.034C179.006 29.034 179.678 28.6933 180.098 28.012L181.134 28.6C180.452 29.6547 179.426 30.182 178.054 30.182C176.943 30.182 176.038 29.8367 175.338 29.146C174.647 28.446 174.302 27.564 174.302 26.5C174.302 25.4453 174.642 24.568 175.324 23.868C176.005 23.168 176.887 22.818 177.97 22.818C178.996 22.818 179.832 23.182 180.476 23.91C181.129 24.6287 181.456 25.4967 181.456 26.514C181.456 26.6913 181.442 26.8733 181.414 27.06H175.548ZM177.97 23.966C177.316 23.966 176.775 24.1527 176.346 24.526C175.916 24.89 175.65 25.38 175.548 25.996H180.224C180.121 25.3333 179.86 24.8293 179.44 24.484C179.02 24.1387 178.53 23.966 177.97 23.966ZM187.7 23H188.918V30H187.7V27.074H184.074V30H182.856V23H184.074V25.912H187.7V23ZM195.98 23V24.176H193.6V30H192.382V24.176H189.988V23H195.98ZM200.911 22.818C201.891 22.818 202.726 23.1773 203.417 23.896C204.108 24.6053 204.453 25.4733 204.453 26.5C204.453 27.5267 204.108 28.3993 203.417 29.118C202.726 29.8273 201.891 30.182 200.911 30.182C199.754 30.182 198.872 29.72 198.265 28.796V32.8H197.047V23H198.265V24.204C198.872 23.28 199.754 22.818 200.911 22.818ZM200.757 29.006C201.457 29.006 202.045 28.768 202.521 28.292C202.997 27.8067 203.235 27.2093 203.235 26.5C203.235 25.7907 202.997 25.198 202.521 24.722C202.045 24.2367 201.457 23.994 200.757 23.994C200.048 23.994 199.455 24.2367 198.979 24.722C198.503 25.198 198.265 25.7907 198.265 26.5C198.265 27.2093 198.503 27.8067 198.979 28.292C199.455 28.768 200.048 29.006 200.757 29.006ZM211.702 23H212.92V30H211.702V28.796C211.096 29.72 210.214 30.182 209.056 30.182C208.076 30.182 207.241 29.8273 206.55 29.118C205.86 28.3993 205.514 27.5267 205.514 26.5C205.514 25.4733 205.86 24.6053 206.55 23.896C207.241 23.1773 208.076 22.818 209.056 22.818C210.214 22.818 211.096 23.28 211.702 24.204V23ZM209.21 29.006C209.92 29.006 210.512 28.768 210.988 28.292C211.464 27.8067 211.702 27.2093 211.702 26.5C211.702 25.7907 211.464 25.198 210.988 24.722C210.512 24.2367 209.92 23.994 209.21 23.994C208.51 23.994 207.922 24.2367 207.446 24.722C206.97 25.198 206.732 25.7907 206.732 26.5C206.732 27.2093 206.97 27.8067 207.446 28.292C207.922 28.768 208.51 29.006 209.21 29.006ZM75.586 47.402C76.3047 47.7007 76.664 48.242 76.664 49.026C76.664 49.6047 76.468 50.0807 76.076 50.454C75.6933 50.818 75.1427 51 74.424 51H70.924V44H74.144C74.844 44 75.3853 44.1773 75.768 44.532C76.1507 44.8773 76.342 45.3347 76.342 45.904C76.342 46.576 76.09 47.0753 75.586 47.402ZM74.088 45.092H72.114V46.926H74.088C74.7973 46.926 75.152 46.6133 75.152 45.988C75.152 45.3907 74.7973 45.092 74.088 45.092ZM74.354 49.894C74.7087 49.894 74.9793 49.81 75.166 49.642C75.362 49.474 75.46 49.236 75.46 48.928C75.46 48.6387 75.362 48.4147 75.166 48.256C74.9793 48.088 74.7087 48.004 74.354 48.004H72.114V49.894H74.354ZM84.7687 51.182C83.714 51.182 82.8367 50.832 82.1367 50.132C81.4367 49.4227 81.0867 48.5453 81.0867 47.5C81.0867 46.4547 81.4367 45.582 82.1367 44.882C82.8367 44.1727 83.714 43.818 84.7687 43.818C85.4594 43.818 86.08 43.986 86.6307 44.322C87.1814 44.6487 87.592 45.092 87.8627 45.652L86.8407 46.24C86.6634 45.8667 86.388 45.568 86.0147 45.344C85.6507 45.12 85.2354 45.008 84.7687 45.008C84.0687 45.008 83.4807 45.246 83.0047 45.722C82.538 46.198 82.3047 46.7907 82.3047 47.5C82.3047 48.2 82.538 48.788 83.0047 49.264C83.4807 49.74 84.0687 49.978 84.7687 49.978C85.2354 49.978 85.6554 49.8707 86.0287 49.656C86.402 49.432 86.6867 49.1333 86.8827 48.76L87.9187 49.362C87.62 49.9127 87.1907 50.356 86.6307 50.692C86.0707 51.0187 85.45 51.182 84.7687 51.182ZM94.2199 44V45.176H91.8399V51H90.6219V45.176H88.2279V44H94.2199ZM99.1513 43.818C100.131 43.818 100.967 44.1773 101.657 44.896C102.348 45.6053 102.693 46.4733 102.693 47.5C102.693 48.5267 102.348 49.3993 101.657 50.118C100.967 50.8273 100.131 51.182 99.1513 51.182C97.9939 51.182 97.1119 50.72 96.5053 49.796V53.8H95.2873V44H96.5053V45.204C97.1119 44.28 97.9939 43.818 99.1513 43.818ZM98.9973 50.006C99.6973 50.006 100.285 49.768 100.761 49.292C101.237 48.8067 101.475 48.2093 101.475 47.5C101.475 46.7907 101.237 46.198 100.761 45.722C100.285 45.2367 99.6973 44.994 98.9973 44.994C98.2879 44.994 97.6953 45.2367 97.2193 45.722C96.7433 46.198 96.5053 46.7907 96.5053 47.5C96.5053 48.2093 96.7433 48.8067 97.2193 49.292C97.6953 49.768 98.2879 50.006 98.9973 50.006ZM109.943 44H111.161V51H109.943V49.796C109.336 50.72 108.454 51.182 107.297 51.182C106.317 51.182 105.481 50.8273 104.791 50.118C104.1 49.3993 103.755 48.5267 103.755 47.5C103.755 46.4733 104.1 45.6053 104.791 44.896C105.481 44.1773 106.317 43.818 107.297 43.818C108.454 43.818 109.336 44.28 109.943 45.204V44ZM107.451 50.006C108.16 50.006 108.753 49.768 109.229 49.292C109.705 48.8067 109.943 48.2093 109.943 47.5C109.943 46.7907 109.705 46.198 109.229 45.722C108.753 45.2367 108.16 44.994 107.451 44.994C106.751 44.994 106.163 45.2367 105.687 45.722C105.211 46.198 104.973 46.7907 104.973 47.5C104.973 48.2093 105.211 48.8067 105.687 49.292C106.163 49.768 106.751 50.006 107.451 50.006ZM117.85 44H119.068V51H117.85V48.074H114.224V51H113.006V44H114.224V46.912H117.85V44ZM126.718 44H127.936V51H126.718V49.796C126.111 50.72 125.229 51.182 124.072 51.182C123.092 51.182 122.257 50.8273 121.566 50.118C120.875 49.3993 120.53 48.5267 120.53 47.5C120.53 46.4733 120.875 45.6053 121.566 44.896C122.257 44.1773 123.092 43.818 124.072 43.818C125.229 43.818 126.111 44.28 126.718 45.204V44ZM124.226 50.006C124.935 50.006 125.528 49.768 126.004 49.292C126.48 48.8067 126.718 48.2093 126.718 47.5C126.718 46.7907 126.48 46.198 126.004 45.722C125.528 45.2367 124.935 44.994 124.226 44.994C123.526 44.994 122.938 45.2367 122.462 45.722C121.986 46.198 121.748 46.7907 121.748 47.5C121.748 48.2093 121.986 48.8067 122.462 49.292C122.938 49.768 123.526 50.006 124.226 50.006ZM135.857 51H134.429L132.469 48.354L130.495 51H129.067L131.755 47.402L129.221 44H130.663L132.469 46.436L134.275 44H135.703L133.183 47.388L135.857 51ZM145.219 51.182C143.735 51.182 142.507 50.692 141.537 49.712C140.575 48.732 140.095 47.528 140.095 46.1C140.095 44.672 140.575 43.468 141.537 42.488C142.507 41.508 143.735 41.018 145.219 41.018C146.115 41.018 146.936 41.2327 147.683 41.662C148.439 42.0913 149.027 42.67 149.447 43.398L148.312 44.056C148.033 43.5147 147.613 43.0853 147.053 42.768C146.502 42.4413 145.891 42.278 145.219 42.278C144.089 42.278 143.165 42.642 142.447 43.37C141.737 44.098 141.383 45.008 141.383 46.1C141.383 47.1827 141.737 48.088 142.447 48.816C143.165 49.544 144.089 49.908 145.219 49.908C145.891 49.908 146.502 49.7493 147.053 49.432C147.613 49.1053 148.033 48.676 148.312 48.144L149.447 48.788C149.036 49.516 148.453 50.0993 147.697 50.538C146.941 50.9673 146.115 51.182 145.219 51.182ZM156.983 41.2H158.271V51H156.983V46.59H152.223V51H150.921V41.2H152.223V45.358H156.983V41.2ZM165.87 41.2V42.432H161.67V51H160.368V41.2H165.87Z" fill="black"/>
</g>
</svg>
