<svg width="214" height="159" viewBox="0 0 214 159" fill="none" xmlns="http://www.w3.org/2000/svg">
<g opacity="0.3">
<path d="M0.864 18.4H21.84V22.384L9.6 52H4.944L17.088 22.624H0.864V18.4ZM42.1778 34.624C43.8098 35.456 45.0898 36.576 46.0178 37.984C46.9458 39.392 47.4098 40.992 47.4098 42.784C47.4098 45.856 46.3378 48.272 44.1938 50.032C42.0498 51.76 39.2818 52.624 35.8898 52.624C32.5298 52.624 29.7778 51.76 27.6338 50.032C25.4898 48.272 24.4178 45.856 24.4178 42.784C24.4178 40.992 24.8818 39.392 25.8098 37.984C26.7378 36.576 28.0178 35.456 29.6497 34.624C26.8978 32.896 25.5218 30.448 25.5218 27.28C25.5218 24.24 26.5298 21.904 28.5458 20.272C30.5938 18.608 33.0418 17.776 35.8898 17.776C38.7698 17.776 41.2178 18.608 43.2338 20.272C45.2818 21.904 46.3058 24.24 46.3058 27.28C46.3058 30.448 44.9298 32.896 42.1778 34.624ZM35.8898 22.048C34.1938 22.048 32.7698 22.496 31.6178 23.392C30.4978 24.288 29.9378 25.616 29.9378 27.376C29.9378 29.072 30.5138 30.4 31.6658 31.36C32.8178 32.288 34.2258 32.752 35.8898 32.752C37.5538 32.752 38.9618 32.288 40.1138 31.36C41.2658 30.4 41.8418 29.072 41.8418 27.376C41.8418 25.616 41.2818 24.288 40.1618 23.392C39.0418 22.496 37.6178 22.048 35.8898 22.048ZM35.8898 48.352C38.0338 48.352 39.7458 47.856 41.0258 46.864C42.3378 45.84 42.9938 44.384 42.9938 42.496C42.9938 40.64 42.3378 39.216 41.0258 38.224C39.7458 37.2 38.0338 36.688 35.8898 36.688C33.7778 36.688 32.0658 37.2 30.7538 38.224C29.4738 39.216 28.8338 40.64 28.8338 42.496C28.8338 44.384 29.4738 45.84 30.7538 46.864C32.0658 47.856 33.7778 48.352 35.8898 48.352Z" fill="black"/>
<path d="M0.864 105.4H21.84V109.384L9.6 139H4.944L17.088 109.624H0.864V105.4ZM42.1778 121.624C43.8098 122.456 45.0898 123.576 46.0178 124.984C46.9458 126.392 47.4098 127.992 47.4098 129.784C47.4098 132.856 46.3378 135.272 44.1938 137.032C42.0498 138.76 39.2818 139.624 35.8898 139.624C32.5298 139.624 29.7778 138.76 27.6338 137.032C25.4898 135.272 24.4178 132.856 24.4178 129.784C24.4178 127.992 24.8818 126.392 25.8098 124.984C26.7378 123.576 28.0178 122.456 29.6497 121.624C26.8978 119.896 25.5218 117.448 25.5218 114.28C25.5218 111.24 26.5298 108.904 28.5458 107.272C30.5938 105.608 33.0418 104.776 35.8898 104.776C38.7698 104.776 41.2178 105.608 43.2338 107.272C45.2818 108.904 46.3058 111.24 46.3058 114.28C46.3058 117.448 44.9298 119.896 42.1778 121.624ZM35.8898 109.048C34.1938 109.048 32.7698 109.496 31.6178 110.392C30.4978 111.288 29.9378 112.616 29.9378 114.376C29.9378 116.072 30.5138 117.4 31.6658 118.36C32.8178 119.288 34.2258 119.752 35.8898 119.752C37.5538 119.752 38.9618 119.288 40.1138 118.36C41.2658 117.4 41.8418 116.072 41.8418 114.376C41.8418 112.616 41.2818 111.288 40.1618 110.392C39.0418 109.496 37.6178 109.048 35.8898 109.048ZM35.8898 135.352C38.0338 135.352 39.7458 134.856 41.0258 133.864C42.3378 132.84 42.9938 131.384 42.9938 129.496C42.9938 127.64 42.3378 126.216 41.0258 125.224C39.7458 124.2 38.0338 123.688 35.8898 123.688C33.7778 123.688 32.0658 124.2 30.7538 125.224C29.4738 126.216 28.8338 127.64 28.8338 129.496C28.8338 131.384 29.4738 132.84 30.7538 133.864C32.0658 134.856 33.7778 135.352 35.8898 135.352Z" fill="black"/>
<path d="M75.656 30.182C74.172 30.182 72.9447 29.692 71.974 28.712C71.0127 27.732 70.532 26.528 70.532 25.1C70.532 23.672 71.0127 22.468 71.974 21.488C72.9447 20.508 74.172 20.018 75.656 20.018C76.552 20.018 77.3733 20.2327 78.12 20.662C78.876 21.0913 79.464 21.67 79.884 22.398L78.75 23.056C78.47 22.5147 78.05 22.0853 77.49 21.768C76.9393 21.4413 76.328 21.278 75.656 21.278C74.5267 21.278 73.6027 21.642 72.884 22.37C72.1747 23.098 71.82 24.008 71.82 25.1C71.82 26.1827 72.1747 27.088 72.884 27.816C73.6027 28.544 74.5267 28.908 75.656 28.908C76.328 28.908 76.9393 28.7493 77.49 28.432C78.05 28.1053 78.47 27.676 78.75 27.144L79.884 27.788C79.4733 28.516 78.89 29.0993 78.134 29.538C77.378 29.9673 76.552 30.182 75.656 30.182ZM87.1133 29.118C86.3946 29.8273 85.5219 30.182 84.4953 30.182C83.4686 30.182 82.5959 29.8273 81.8773 29.118C81.1679 28.4087 80.8133 27.536 80.8133 26.5C80.8133 25.464 81.1679 24.5913 81.8773 23.882C82.5959 23.1727 83.4686 22.818 84.4953 22.818C85.5219 22.818 86.3946 23.1727 87.1133 23.882C87.8319 24.5913 88.1912 25.464 88.1912 26.5C88.1912 27.536 87.8319 28.4087 87.1133 29.118ZM84.4953 28.992C85.1953 28.992 85.7833 28.754 86.2593 28.278C86.7353 27.802 86.9733 27.2093 86.9733 26.5C86.9733 25.7907 86.7353 25.198 86.2593 24.722C85.7833 24.246 85.1953 24.008 84.4953 24.008C83.8046 24.008 83.2213 24.246 82.7453 24.722C82.2693 25.198 82.0312 25.7907 82.0312 26.5C82.0312 27.2093 82.2693 27.802 82.7453 28.278C83.2213 28.754 83.8046 28.992 84.4953 28.992ZM94.2891 26.402C95.0078 26.7007 95.3671 27.242 95.3671 28.026C95.3671 28.6047 95.1711 29.0807 94.7791 29.454C94.3965 29.818 93.8458 30 93.1271 30H89.6271V23H92.8471C93.5471 23 94.0885 23.1773 94.4711 23.532C94.8538 23.8773 95.0451 24.3347 95.0451 24.904C95.0451 25.576 94.7931 26.0753 94.2891 26.402ZM92.7911 24.092H90.8171V25.926H92.7911C93.5005 25.926 93.8551 25.6133 93.8551 24.988C93.8551 24.3907 93.5005 24.092 92.7911 24.092ZM93.0571 28.894C93.4118 28.894 93.6825 28.81 93.8691 28.642C94.0651 28.474 94.1631 28.236 94.1631 27.928C94.1631 27.6387 94.0651 27.4147 93.8691 27.256C93.6825 27.088 93.4118 27.004 93.0571 27.004H90.8171V28.894H93.0571ZM100.546 22.818C101.526 22.818 102.361 23.1773 103.052 23.896C103.742 24.6053 104.088 25.4733 104.088 26.5C104.088 27.5267 103.742 28.3993 103.052 29.118C102.361 29.8273 101.526 30.182 100.546 30.182C99.3885 30.182 98.5065 29.72 97.8998 28.796V32.8H96.6818V23H97.8998V24.204C98.5065 23.28 99.3885 22.818 100.546 22.818ZM100.392 29.006C101.092 29.006 101.68 28.768 102.156 28.292C102.632 27.8067 102.87 27.2093 102.87 26.5C102.87 25.7907 102.632 25.198 102.156 24.722C101.68 24.2367 101.092 23.994 100.392 23.994C99.6825 23.994 99.0898 24.2367 98.6138 24.722C98.1378 25.198 97.8998 25.7907 97.8998 26.5C97.8998 27.2093 98.1378 27.8067 98.6138 28.292C99.0898 28.768 99.6825 29.006 100.392 29.006ZM106.395 27.06C106.517 27.6853 106.801 28.1707 107.249 28.516C107.707 28.8613 108.267 29.034 108.929 29.034C109.853 29.034 110.525 28.6933 110.945 28.012L111.981 28.6C111.3 29.6547 110.273 30.182 108.901 30.182C107.791 30.182 106.885 29.8367 106.185 29.146C105.495 28.446 105.149 27.564 105.149 26.5C105.149 25.4453 105.49 24.568 106.171 23.868C106.853 23.168 107.735 22.818 108.817 22.818C109.844 22.818 110.679 23.182 111.323 23.91C111.977 24.6287 112.303 25.4967 112.303 26.514C112.303 26.6913 112.289 26.8733 112.261 27.06H106.395ZM108.817 23.966C108.164 23.966 107.623 24.1527 107.193 24.526C106.764 24.89 106.498 25.38 106.395 25.996H111.071C110.969 25.3333 110.707 24.8293 110.287 24.484C109.867 24.1387 109.377 23.966 108.817 23.966ZM120.703 23V30H119.513V24.918L117.287 28.502H117.133L114.907 24.918V30H113.703V23H115.005L117.203 26.542L119.401 23H120.703ZM123.417 27.06C123.538 27.6853 123.823 28.1707 124.271 28.516C124.728 28.8613 125.288 29.034 125.951 29.034C126.875 29.034 127.547 28.6933 127.967 28.012L129.003 28.6C128.321 29.6547 127.295 30.182 125.923 30.182C124.812 30.182 123.907 29.8367 123.207 29.146C122.516 28.446 122.171 27.564 122.171 26.5C122.171 25.4453 122.511 24.568 123.193 23.868C123.874 23.168 124.756 22.818 125.839 22.818C126.865 22.818 127.701 23.182 128.345 23.91C128.998 24.6287 129.325 25.4967 129.325 26.514C129.325 26.6913 129.311 26.8733 129.283 27.06H123.417ZM125.839 23.966C125.185 23.966 124.644 24.1527 124.215 24.526C123.785 24.89 123.519 25.38 123.417 25.996H128.093C127.99 25.3333 127.729 24.8293 127.309 24.484C126.889 24.1387 126.399 23.966 125.839 23.966ZM135.569 23H136.787V30H135.569V27.074H131.943V30H130.725V23H131.943V25.912H135.569V23ZM143.485 23H144.703V30H143.485V27.074H139.859V30H138.641V23H139.859V25.912H143.485V23ZM149.511 25.52C150.211 25.52 150.789 25.73 151.247 26.15C151.713 26.5607 151.947 27.0973 151.947 27.76C151.947 28.4227 151.713 28.964 151.247 29.384C150.789 29.7947 150.211 30 149.511 30H146.557V23H147.775V25.52H149.511ZM152.857 23H154.075V30H152.857V23ZM149.511 28.866C149.856 28.866 150.145 28.768 150.379 28.572C150.621 28.3667 150.743 28.096 150.743 27.76C150.743 27.424 150.621 27.1533 150.379 26.948C150.145 26.7427 149.856 26.64 149.511 26.64H147.775V28.866H149.511ZM162.012 30H160.584L158.624 27.354L156.65 30H155.222L157.91 26.402L155.376 23H156.818L158.624 25.436L160.43 23H161.858L159.338 26.388L162.012 30ZM172.521 28.838H173.669V31.876H172.465V30H166.641V23H167.859V28.838H171.303V23H172.521V28.838ZM175.548 27.06C175.669 27.6853 175.954 28.1707 176.402 28.516C176.859 28.8613 177.419 29.034 178.082 29.034C179.006 29.034 179.678 28.6933 180.098 28.012L181.134 28.6C180.452 29.6547 179.426 30.182 178.054 30.182C176.943 30.182 176.038 29.8367 175.338 29.146C174.647 28.446 174.302 27.564 174.302 26.5C174.302 25.4453 174.642 24.568 175.324 23.868C176.005 23.168 176.887 22.818 177.97 22.818C178.996 22.818 179.832 23.182 180.476 23.91C181.129 24.6287 181.456 25.4967 181.456 26.514C181.456 26.6913 181.442 26.8733 181.414 27.06H175.548ZM177.97 23.966C177.316 23.966 176.775 24.1527 176.346 24.526C175.916 24.89 175.65 25.38 175.548 25.996H180.224C180.121 25.3333 179.86 24.8293 179.44 24.484C179.02 24.1387 178.53 23.966 177.97 23.966ZM187.7 23H188.918V30H187.7V27.074H184.074V30H182.856V23H184.074V25.912H187.7V23ZM195.98 23V24.176H193.6V30H192.382V24.176H189.988V23H195.98ZM200.911 22.818C201.891 22.818 202.726 23.1773 203.417 23.896C204.108 24.6053 204.453 25.4733 204.453 26.5C204.453 27.5267 204.108 28.3993 203.417 29.118C202.726 29.8273 201.891 30.182 200.911 30.182C199.754 30.182 198.872 29.72 198.265 28.796V32.8H197.047V23H198.265V24.204C198.872 23.28 199.754 22.818 200.911 22.818ZM200.757 29.006C201.457 29.006 202.045 28.768 202.521 28.292C202.997 27.8067 203.235 27.2093 203.235 26.5C203.235 25.7907 202.997 25.198 202.521 24.722C202.045 24.2367 201.457 23.994 200.757 23.994C200.048 23.994 199.455 24.2367 198.979 24.722C198.503 25.198 198.265 25.7907 198.265 26.5C198.265 27.2093 198.503 27.8067 198.979 28.292C199.455 28.768 200.048 29.006 200.757 29.006ZM211.702 23H212.92V30H211.702V28.796C211.096 29.72 210.214 30.182 209.056 30.182C208.076 30.182 207.241 29.8273 206.55 29.118C205.86 28.3993 205.514 27.5267 205.514 26.5C205.514 25.4733 205.86 24.6053 206.55 23.896C207.241 23.1773 208.076 22.818 209.056 22.818C210.214 22.818 211.096 23.28 211.702 24.204V23ZM209.21 29.006C209.92 29.006 210.512 28.768 210.988 28.292C211.464 27.8067 211.702 27.2093 211.702 26.5C211.702 25.7907 211.464 25.198 210.988 24.722C210.512 24.2367 209.92 23.994 209.21 23.994C208.51 23.994 207.922 24.2367 207.446 24.722C206.97 25.198 206.732 25.7907 206.732 26.5C206.732 27.2093 206.97 27.8067 207.446 28.292C207.922 28.768 208.51 29.006 209.21 29.006ZM75.586 47.402C76.3047 47.7007 76.664 48.242 76.664 49.026C76.664 49.6047 76.468 50.0807 76.076 50.454C75.6933 50.818 75.1427 51 74.424 51H70.924V44H74.144C74.844 44 75.3853 44.1773 75.768 44.532C76.1507 44.8773 76.342 45.3347 76.342 45.904C76.342 46.576 76.09 47.0753 75.586 47.402ZM74.088 45.092H72.114V46.926H74.088C74.7973 46.926 75.152 46.6133 75.152 45.988C75.152 45.3907 74.7973 45.092 74.088 45.092ZM74.354 49.894C74.7087 49.894 74.9793 49.81 75.166 49.642C75.362 49.474 75.46 49.236 75.46 48.928C75.46 48.6387 75.362 48.4147 75.166 48.256C74.9793 48.088 74.7087 48.004 74.354 48.004H72.114V49.894H74.354ZM84.7687 51.182C83.714 51.182 82.8367 50.832 82.1367 50.132C81.4367 49.4227 81.0867 48.5453 81.0867 47.5C81.0867 46.4547 81.4367 45.582 82.1367 44.882C82.8367 44.1727 83.714 43.818 84.7687 43.818C85.4594 43.818 86.08 43.986 86.6307 44.322C87.1814 44.6487 87.592 45.092 87.8627 45.652L86.8407 46.24C86.6634 45.8667 86.388 45.568 86.0147 45.344C85.6507 45.12 85.2354 45.008 84.7687 45.008C84.0687 45.008 83.4807 45.246 83.0047 45.722C82.538 46.198 82.3047 46.7907 82.3047 47.5C82.3047 48.2 82.538 48.788 83.0047 49.264C83.4807 49.74 84.0687 49.978 84.7687 49.978C85.2354 49.978 85.6554 49.8707 86.0287 49.656C86.402 49.432 86.6867 49.1333 86.8827 48.76L87.9187 49.362C87.62 49.9127 87.1907 50.356 86.6307 50.692C86.0707 51.0187 85.45 51.182 84.7687 51.182ZM94.2199 44V45.176H91.8399V51H90.6219V45.176H88.2279V44H94.2199ZM99.1513 43.818C100.131 43.818 100.967 44.1773 101.657 44.896C102.348 45.6053 102.693 46.4733 102.693 47.5C102.693 48.5267 102.348 49.3993 101.657 50.118C100.967 50.8273 100.131 51.182 99.1513 51.182C97.9939 51.182 97.1119 50.72 96.5053 49.796V53.8H95.2873V44H96.5053V45.204C97.1119 44.28 97.9939 43.818 99.1513 43.818ZM98.9973 50.006C99.6973 50.006 100.285 49.768 100.761 49.292C101.237 48.8067 101.475 48.2093 101.475 47.5C101.475 46.7907 101.237 46.198 100.761 45.722C100.285 45.2367 99.6973 44.994 98.9973 44.994C98.2879 44.994 97.6953 45.2367 97.2193 45.722C96.7433 46.198 96.5053 46.7907 96.5053 47.5C96.5053 48.2093 96.7433 48.8067 97.2193 49.292C97.6953 49.768 98.2879 50.006 98.9973 50.006ZM109.943 44H111.161V51H109.943V49.796C109.336 50.72 108.454 51.182 107.297 51.182C106.317 51.182 105.481 50.8273 104.791 50.118C104.1 49.3993 103.755 48.5267 103.755 47.5C103.755 46.4733 104.1 45.6053 104.791 44.896C105.481 44.1773 106.317 43.818 107.297 43.818C108.454 43.818 109.336 44.28 109.943 45.204V44ZM107.451 50.006C108.16 50.006 108.753 49.768 109.229 49.292C109.705 48.8067 109.943 48.2093 109.943 47.5C109.943 46.7907 109.705 46.198 109.229 45.722C108.753 45.2367 108.16 44.994 107.451 44.994C106.751 44.994 106.163 45.2367 105.687 45.722C105.211 46.198 104.973 46.7907 104.973 47.5C104.973 48.2093 105.211 48.8067 105.687 49.292C106.163 49.768 106.751 50.006 107.451 50.006ZM117.85 44H119.068V51H117.85V48.074H114.224V51H113.006V44H114.224V46.912H117.85V44ZM126.718 44H127.936V51H126.718V49.796C126.111 50.72 125.229 51.182 124.072 51.182C123.092 51.182 122.257 50.8273 121.566 50.118C120.875 49.3993 120.53 48.5267 120.53 47.5C120.53 46.4733 120.875 45.6053 121.566 44.896C122.257 44.1773 123.092 43.818 124.072 43.818C125.229 43.818 126.111 44.28 126.718 45.204V44ZM124.226 50.006C124.935 50.006 125.528 49.768 126.004 49.292C126.48 48.8067 126.718 48.2093 126.718 47.5C126.718 46.7907 126.48 46.198 126.004 45.722C125.528 45.2367 124.935 44.994 124.226 44.994C123.526 44.994 122.938 45.2367 122.462 45.722C121.986 46.198 121.748 46.7907 121.748 47.5C121.748 48.2093 121.986 48.8067 122.462 49.292C122.938 49.768 123.526 50.006 124.226 50.006ZM135.857 51H134.429L132.469 48.354L130.495 51H129.067L131.755 47.402L129.221 44H130.663L132.469 46.436L134.275 44H135.703L133.183 47.388L135.857 51ZM145.219 51.182C143.735 51.182 142.507 50.692 141.537 49.712C140.575 48.732 140.095 47.528 140.095 46.1C140.095 44.672 140.575 43.468 141.537 42.488C142.507 41.508 143.735 41.018 145.219 41.018C146.115 41.018 146.936 41.2327 147.683 41.662C148.439 42.0913 149.027 42.67 149.447 43.398L148.312 44.056C148.033 43.5147 147.613 43.0853 147.053 42.768C146.502 42.4413 145.891 42.278 145.219 42.278C144.089 42.278 143.165 42.642 142.447 43.37C141.737 44.098 141.383 45.008 141.383 46.1C141.383 47.1827 141.737 48.088 142.447 48.816C143.165 49.544 144.089 49.908 145.219 49.908C145.891 49.908 146.502 49.7493 147.053 49.432C147.613 49.1053 148.033 48.676 148.312 48.144L149.447 48.788C149.036 49.516 148.453 50.0993 147.697 50.538C146.941 50.9673 146.115 51.182 145.219 51.182ZM156.983 41.2H158.271V51H156.983V46.59H152.223V51H150.921V41.2H152.223V45.358H156.983V41.2ZM165.87 41.2V42.432H161.67V51H160.368V41.2H165.87Z" fill="black"/>
<path d="M75.656 117.182C74.172 117.182 72.9447 116.692 71.974 115.712C71.0127 114.732 70.532 113.528 70.532 112.1C70.532 110.672 71.0127 109.468 71.974 108.488C72.9447 107.508 74.172 107.018 75.656 107.018C76.552 107.018 77.3733 107.233 78.12 107.662C78.876 108.091 79.464 108.67 79.884 109.398L78.75 110.056C78.47 109.515 78.05 109.085 77.49 108.768C76.9393 108.441 76.328 108.278 75.656 108.278C74.5267 108.278 73.6027 108.642 72.884 109.37C72.1747 110.098 71.82 111.008 71.82 112.1C71.82 113.183 72.1747 114.088 72.884 114.816C73.6027 115.544 74.5267 115.908 75.656 115.908C76.328 115.908 76.9393 115.749 77.49 115.432C78.05 115.105 78.47 114.676 78.75 114.144L79.884 114.788C79.4733 115.516 78.89 116.099 78.134 116.538C77.378 116.967 76.552 117.182 75.656 117.182ZM87.1133 116.118C86.3946 116.827 85.5219 117.182 84.4953 117.182C83.4686 117.182 82.5959 116.827 81.8773 116.118C81.1679 115.409 80.8133 114.536 80.8133 113.5C80.8133 112.464 81.1679 111.591 81.8773 110.882C82.5959 110.173 83.4686 109.818 84.4953 109.818C85.5219 109.818 86.3946 110.173 87.1133 110.882C87.8319 111.591 88.1912 112.464 88.1912 113.5C88.1912 114.536 87.8319 115.409 87.1133 116.118ZM84.4953 115.992C85.1953 115.992 85.7833 115.754 86.2593 115.278C86.7353 114.802 86.9733 114.209 86.9733 113.5C86.9733 112.791 86.7353 112.198 86.2593 111.722C85.7833 111.246 85.1953 111.008 84.4953 111.008C83.8046 111.008 83.2213 111.246 82.7453 111.722C82.2693 112.198 82.0312 112.791 82.0312 113.5C82.0312 114.209 82.2693 114.802 82.7453 115.278C83.2213 115.754 83.8046 115.992 84.4953 115.992ZM94.2891 113.402C95.0078 113.701 95.3671 114.242 95.3671 115.026C95.3671 115.605 95.1711 116.081 94.7791 116.454C94.3965 116.818 93.8458 117 93.1271 117H89.6271V110H92.8471C93.5471 110 94.0885 110.177 94.4711 110.532C94.8538 110.877 95.0451 111.335 95.0451 111.904C95.0451 112.576 94.7931 113.075 94.2891 113.402ZM92.7911 111.092H90.8171V112.926H92.7911C93.5005 112.926 93.8551 112.613 93.8551 111.988C93.8551 111.391 93.5005 111.092 92.7911 111.092ZM93.0571 115.894C93.4118 115.894 93.6825 115.81 93.8691 115.642C94.0651 115.474 94.1631 115.236 94.1631 114.928C94.1631 114.639 94.0651 114.415 93.8691 114.256C93.6825 114.088 93.4118 114.004 93.0571 114.004H90.8171V115.894H93.0571ZM100.546 109.818C101.526 109.818 102.361 110.177 103.052 110.896C103.742 111.605 104.088 112.473 104.088 113.5C104.088 114.527 103.742 115.399 103.052 116.118C102.361 116.827 101.526 117.182 100.546 117.182C99.3885 117.182 98.5065 116.72 97.8998 115.796V119.8H96.6818V110H97.8998V111.204C98.5065 110.28 99.3885 109.818 100.546 109.818ZM100.392 116.006C101.092 116.006 101.68 115.768 102.156 115.292C102.632 114.807 102.87 114.209 102.87 113.5C102.87 112.791 102.632 112.198 102.156 111.722C101.68 111.237 101.092 110.994 100.392 110.994C99.6825 110.994 99.0898 111.237 98.6138 111.722C98.1378 112.198 97.8998 112.791 97.8998 113.5C97.8998 114.209 98.1378 114.807 98.6138 115.292C99.0898 115.768 99.6825 116.006 100.392 116.006ZM106.395 114.06C106.517 114.685 106.801 115.171 107.249 115.516C107.707 115.861 108.267 116.034 108.929 116.034C109.853 116.034 110.525 115.693 110.945 115.012L111.981 115.6C111.3 116.655 110.273 117.182 108.901 117.182C107.791 117.182 106.885 116.837 106.185 116.146C105.495 115.446 105.149 114.564 105.149 113.5C105.149 112.445 105.49 111.568 106.171 110.868C106.853 110.168 107.735 109.818 108.817 109.818C109.844 109.818 110.679 110.182 111.323 110.91C111.977 111.629 112.303 112.497 112.303 113.514C112.303 113.691 112.289 113.873 112.261 114.06H106.395ZM108.817 110.966C108.164 110.966 107.623 111.153 107.193 111.526C106.764 111.89 106.498 112.38 106.395 112.996H111.071C110.969 112.333 110.707 111.829 110.287 111.484C109.867 111.139 109.377 110.966 108.817 110.966ZM120.703 110V117H119.513V111.918L117.287 115.502H117.133L114.907 111.918V117H113.703V110H115.005L117.203 113.542L119.401 110H120.703ZM123.417 114.06C123.538 114.685 123.823 115.171 124.271 115.516C124.728 115.861 125.288 116.034 125.951 116.034C126.875 116.034 127.547 115.693 127.967 115.012L129.003 115.6C128.321 116.655 127.295 117.182 125.923 117.182C124.812 117.182 123.907 116.837 123.207 116.146C122.516 115.446 122.171 114.564 122.171 113.5C122.171 112.445 122.511 111.568 123.193 110.868C123.874 110.168 124.756 109.818 125.839 109.818C126.865 109.818 127.701 110.182 128.345 110.91C128.998 111.629 129.325 112.497 129.325 113.514C129.325 113.691 129.311 113.873 129.283 114.06H123.417ZM125.839 110.966C125.185 110.966 124.644 111.153 124.215 111.526C123.785 111.89 123.519 112.38 123.417 112.996H128.093C127.99 112.333 127.729 111.829 127.309 111.484C126.889 111.139 126.399 110.966 125.839 110.966ZM135.569 110H136.787V117H135.569V114.074H131.943V117H130.725V110H131.943V112.912H135.569V110ZM143.485 110H144.703V117H143.485V114.074H139.859V117H138.641V110H139.859V112.912H143.485V110ZM149.511 112.52C150.211 112.52 150.789 112.73 151.247 113.15C151.713 113.561 151.947 114.097 151.947 114.76C151.947 115.423 151.713 115.964 151.247 116.384C150.789 116.795 150.211 117 149.511 117H146.557V110H147.775V112.52H149.511ZM152.857 110H154.075V117H152.857V110ZM149.511 115.866C149.856 115.866 150.145 115.768 150.379 115.572C150.621 115.367 150.743 115.096 150.743 114.76C150.743 114.424 150.621 114.153 150.379 113.948C150.145 113.743 149.856 113.64 149.511 113.64H147.775V115.866H149.511ZM162.012 117H160.584L158.624 114.354L156.65 117H155.222L157.91 113.402L155.376 110H156.818L158.624 112.436L160.43 110H161.858L159.338 113.388L162.012 117ZM172.521 115.838H173.669V118.876H172.465V117H166.641V110H167.859V115.838H171.303V110H172.521V115.838ZM175.548 114.06C175.669 114.685 175.954 115.171 176.402 115.516C176.859 115.861 177.419 116.034 178.082 116.034C179.006 116.034 179.678 115.693 180.098 115.012L181.134 115.6C180.452 116.655 179.426 117.182 178.054 117.182C176.943 117.182 176.038 116.837 175.338 116.146C174.647 115.446 174.302 114.564 174.302 113.5C174.302 112.445 174.642 111.568 175.324 110.868C176.005 110.168 176.887 109.818 177.97 109.818C178.996 109.818 179.832 110.182 180.476 110.91C181.129 111.629 181.456 112.497 181.456 113.514C181.456 113.691 181.442 113.873 181.414 114.06H175.548ZM177.97 110.966C177.316 110.966 176.775 111.153 176.346 111.526C175.916 111.89 175.65 112.38 175.548 112.996H180.224C180.121 112.333 179.86 111.829 179.44 111.484C179.02 111.139 178.53 110.966 177.97 110.966ZM187.7 110H188.918V117H187.7V114.074H184.074V117H182.856V110H184.074V112.912H187.7V110ZM195.98 110V111.176H193.6V117H192.382V111.176H189.988V110H195.98ZM200.911 109.818C201.891 109.818 202.726 110.177 203.417 110.896C204.108 111.605 204.453 112.473 204.453 113.5C204.453 114.527 204.108 115.399 203.417 116.118C202.726 116.827 201.891 117.182 200.911 117.182C199.754 117.182 198.872 116.72 198.265 115.796V119.8H197.047V110H198.265V111.204C198.872 110.28 199.754 109.818 200.911 109.818ZM200.757 116.006C201.457 116.006 202.045 115.768 202.521 115.292C202.997 114.807 203.235 114.209 203.235 113.5C203.235 112.791 202.997 112.198 202.521 111.722C202.045 111.237 201.457 110.994 200.757 110.994C200.048 110.994 199.455 111.237 198.979 111.722C198.503 112.198 198.265 112.791 198.265 113.5C198.265 114.209 198.503 114.807 198.979 115.292C199.455 115.768 200.048 116.006 200.757 116.006ZM211.702 110H212.92V117H211.702V115.796C211.096 116.72 210.214 117.182 209.056 117.182C208.076 117.182 207.241 116.827 206.55 116.118C205.86 115.399 205.514 114.527 205.514 113.5C205.514 112.473 205.86 111.605 206.55 110.896C207.241 110.177 208.076 109.818 209.056 109.818C210.214 109.818 211.096 110.28 211.702 111.204V110ZM209.21 116.006C209.92 116.006 210.512 115.768 210.988 115.292C211.464 114.807 211.702 114.209 211.702 113.5C211.702 112.791 211.464 112.198 210.988 111.722C210.512 111.237 209.92 110.994 209.21 110.994C208.51 110.994 207.922 111.237 207.446 111.722C206.97 112.198 206.732 112.791 206.732 113.5C206.732 114.209 206.97 114.807 207.446 115.292C207.922 115.768 208.51 116.006 209.21 116.006ZM75.586 134.402C76.3047 134.701 76.664 135.242 76.664 136.026C76.664 136.605 76.468 137.081 76.076 137.454C75.6933 137.818 75.1427 138 74.424 138H70.924V131H74.144C74.844 131 75.3853 131.177 75.768 131.532C76.1507 131.877 76.342 132.335 76.342 132.904C76.342 133.576 76.09 134.075 75.586 134.402ZM74.088 132.092H72.114V133.926H74.088C74.7973 133.926 75.152 133.613 75.152 132.988C75.152 132.391 74.7973 132.092 74.088 132.092ZM74.354 136.894C74.7087 136.894 74.9793 136.81 75.166 136.642C75.362 136.474 75.46 136.236 75.46 135.928C75.46 135.639 75.362 135.415 75.166 135.256C74.9793 135.088 74.7087 135.004 74.354 135.004H72.114V136.894H74.354ZM84.7687 138.182C83.714 138.182 82.8367 137.832 82.1367 137.132C81.4367 136.423 81.0867 135.545 81.0867 134.5C81.0867 133.455 81.4367 132.582 82.1367 131.882C82.8367 131.173 83.714 130.818 84.7687 130.818C85.4594 130.818 86.08 130.986 86.6307 131.322C87.1814 131.649 87.592 132.092 87.8627 132.652L86.8407 133.24C86.6634 132.867 86.388 132.568 86.0147 132.344C85.6507 132.12 85.2354 132.008 84.7687 132.008C84.0687 132.008 83.4807 132.246 83.0047 132.722C82.538 133.198 82.3047 133.791 82.3047 134.5C82.3047 135.2 82.538 135.788 83.0047 136.264C83.4807 136.74 84.0687 136.978 84.7687 136.978C85.2354 136.978 85.6554 136.871 86.0287 136.656C86.402 136.432 86.6867 136.133 86.8827 135.76L87.9187 136.362C87.62 136.913 87.1907 137.356 86.6307 137.692C86.0707 138.019 85.45 138.182 84.7687 138.182ZM94.2199 131V132.176H91.8399V138H90.6219V132.176H88.2279V131H94.2199ZM99.1513 130.818C100.131 130.818 100.967 131.177 101.657 131.896C102.348 132.605 102.693 133.473 102.693 134.5C102.693 135.527 102.348 136.399 101.657 137.118C100.967 137.827 100.131 138.182 99.1513 138.182C97.9939 138.182 97.1119 137.72 96.5053 136.796V140.8H95.2873V131H96.5053V132.204C97.1119 131.28 97.9939 130.818 99.1513 130.818ZM98.9973 137.006C99.6973 137.006 100.285 136.768 100.761 136.292C101.237 135.807 101.475 135.209 101.475 134.5C101.475 133.791 101.237 133.198 100.761 132.722C100.285 132.237 99.6973 131.994 98.9973 131.994C98.2879 131.994 97.6953 132.237 97.2193 132.722C96.7433 133.198 96.5053 133.791 96.5053 134.5C96.5053 135.209 96.7433 135.807 97.2193 136.292C97.6953 136.768 98.2879 137.006 98.9973 137.006ZM109.943 131H111.161V138H109.943V136.796C109.336 137.72 108.454 138.182 107.297 138.182C106.317 138.182 105.481 137.827 104.791 137.118C104.1 136.399 103.755 135.527 103.755 134.5C103.755 133.473 104.1 132.605 104.791 131.896C105.481 131.177 106.317 130.818 107.297 130.818C108.454 130.818 109.336 131.28 109.943 132.204V131ZM107.451 137.006C108.16 137.006 108.753 136.768 109.229 136.292C109.705 135.807 109.943 135.209 109.943 134.5C109.943 133.791 109.705 133.198 109.229 132.722C108.753 132.237 108.16 131.994 107.451 131.994C106.751 131.994 106.163 132.237 105.687 132.722C105.211 133.198 104.973 133.791 104.973 134.5C104.973 135.209 105.211 135.807 105.687 136.292C106.163 136.768 106.751 137.006 107.451 137.006ZM117.85 131H119.068V138H117.85V135.074H114.224V138H113.006V131H114.224V133.912H117.85V131ZM126.718 131H127.936V138H126.718V136.796C126.111 137.72 125.229 138.182 124.072 138.182C123.092 138.182 122.257 137.827 121.566 137.118C120.875 136.399 120.53 135.527 120.53 134.5C120.53 133.473 120.875 132.605 121.566 131.896C122.257 131.177 123.092 130.818 124.072 130.818C125.229 130.818 126.111 131.28 126.718 132.204V131ZM124.226 137.006C124.935 137.006 125.528 136.768 126.004 136.292C126.48 135.807 126.718 135.209 126.718 134.5C126.718 133.791 126.48 133.198 126.004 132.722C125.528 132.237 124.935 131.994 124.226 131.994C123.526 131.994 122.938 132.237 122.462 132.722C121.986 133.198 121.748 133.791 121.748 134.5C121.748 135.209 121.986 135.807 122.462 136.292C122.938 136.768 123.526 137.006 124.226 137.006ZM135.857 138H134.429L132.469 135.354L130.495 138H129.067L131.755 134.402L129.221 131H130.663L132.469 133.436L134.275 131H135.703L133.183 134.388L135.857 138ZM145.219 138.182C143.735 138.182 142.507 137.692 141.537 136.712C140.575 135.732 140.095 134.528 140.095 133.1C140.095 131.672 140.575 130.468 141.537 129.488C142.507 128.508 143.735 128.018 145.219 128.018C146.115 128.018 146.936 128.233 147.683 128.662C148.439 129.091 149.027 129.67 149.447 130.398L148.312 131.056C148.033 130.515 147.613 130.085 147.053 129.768C146.502 129.441 145.891 129.278 145.219 129.278C144.089 129.278 143.165 129.642 142.447 130.37C141.737 131.098 141.383 132.008 141.383 133.1C141.383 134.183 141.737 135.088 142.447 135.816C143.165 136.544 144.089 136.908 145.219 136.908C145.891 136.908 146.502 136.749 147.053 136.432C147.613 136.105 148.033 135.676 148.312 135.144L149.447 135.788C149.036 136.516 148.453 137.099 147.697 137.538C146.941 137.967 146.115 138.182 145.219 138.182ZM156.983 128.2H158.271V138H156.983V133.59H152.223V138H150.921V128.2H152.223V132.358H156.983V128.2ZM165.87 128.2V129.432H161.67V138H160.368V128.2H165.87Z" fill="black"/>
</g>
</svg>
